<svg width="210" height="58" viewBox="0 0 210 58" fill="none" xmlns="http://www.w3.org/2000/svg">
<g clip-path="url(#clip0_0_23177)">
<path d="M13.5632 45.2481C10.8211 45.2481 8.52149 44.5972 6.66446 43.2956C4.80744 41.9939 3.41033 40.2237 2.47314 37.9848C1.53595 35.7286 1.06736 33.2034 1.06736 30.4092C1.06736 27.5803 1.53595 25.0464 2.47314 22.8076C3.41033 20.5687 4.7814 18.8072 6.58636 17.5229C8.40868 16.2211 10.6562 15.5703 13.3289 15.5703C15.9843 15.5703 18.2839 16.2211 20.2277 17.5229C22.1888 18.8072 23.7074 20.5687 24.7835 22.8076C25.8595 25.0291 26.3975 27.5629 26.3975 30.4092C26.3975 33.2208 25.8682 35.746 24.8095 37.9848C23.7508 40.2237 22.2583 41.9939 20.3318 43.2956C18.4054 44.5972 16.1492 45.2481 13.5632 45.2481ZM0 56.9629V16.3513H5.54504V36.0844H6.32603V56.9629H0ZM12.6 39.6249C14.2314 39.6249 15.5764 39.2171 16.6351 38.4014C17.6938 37.5857 18.4748 36.4836 18.9781 35.0952C19.4988 33.6894 19.7591 32.1274 19.7591 30.4092C19.7591 28.7084 19.4988 27.1638 18.9781 25.7753C18.4574 24.3696 17.6504 23.2588 16.557 22.4431C15.4636 21.6101 14.0752 21.1935 12.3917 21.1935C10.795 21.1935 9.49339 21.584 8.48678 22.365C7.48017 23.1286 6.73388 24.2047 6.24793 25.5931C5.77934 26.9642 5.54504 28.5696 5.54504 30.4092C5.54504 32.2315 5.77934 33.8369 6.24793 35.2253C6.73388 36.6138 7.48884 37.6985 8.51281 38.4795C9.55413 39.2431 10.9165 39.6249 12.6 39.6249Z" fill="white"/>
<path d="M28.4912 44.4665V16.3508H34.0363V23.1975L33.3594 22.3124C33.7065 21.3752 34.1664 20.5248 34.7391 19.7612C35.3292 18.9802 36.0321 18.338 36.8478 17.8347C37.542 17.3661 38.3057 17.0016 39.1387 16.7413C39.9891 16.4636 40.8569 16.2987 41.742 16.2466C42.6272 16.1772 43.4863 16.2119 44.3193 16.3508V22.2083C43.4863 21.9653 42.523 21.8872 41.4296 21.974C40.3536 22.0607 39.3817 22.3645 38.5139 22.8851C37.6462 23.3537 36.9346 23.9525 36.3792 24.6814C35.8412 25.4103 35.442 26.2434 35.1817 27.1806C34.9214 28.1004 34.7912 29.0983 34.7912 30.1744V44.4665H28.4912Z" fill="white"/>
<path d="M46.1631 44.4673V16.3516H52.4371V44.4673H46.1631Z" fill="white"/>
<path d="M90.3555 44.4671V27.3894C90.3555 25.463 89.8782 23.9617 88.9237 22.8857C87.9692 21.7923 86.6762 21.2456 85.0448 21.2456C84.0382 21.2456 83.1357 21.4799 82.3373 21.9485C81.539 22.3997 80.9055 23.0766 80.4369 23.9791C79.9683 24.8642 79.734 25.9229 79.734 27.1551L76.9485 25.515C76.9311 23.5712 77.365 21.8617 78.2501 20.3865C79.1526 18.894 80.3675 17.7312 81.8948 16.898C83.422 16.065 85.1229 15.6484 86.9972 15.6484C90.1039 15.6484 92.4815 16.5856 94.1303 18.4601C95.7964 20.3171 96.6295 22.7642 96.6295 25.8014V44.4671H90.3555ZM56.5386 44.4671V16.3513H62.0836V25.0725H62.8646V44.4671H56.5386ZM73.4861 44.4671V27.4675C73.4861 25.5064 73.0088 23.9791 72.0543 22.8857C71.0997 21.7923 69.7981 21.2456 68.1493 21.2456C66.5526 21.2456 65.2683 21.7923 64.2964 22.8857C63.3419 23.9791 62.8646 25.4022 62.8646 27.1551L60.053 25.2807C60.053 23.4584 60.5043 21.8183 61.4068 20.3605C62.3092 18.9026 63.5241 17.7572 65.0514 16.9241C66.596 16.0736 68.3229 15.6484 70.232 15.6484C72.332 15.6484 74.0849 16.0997 75.4906 17.0022C76.9138 17.8873 77.9725 19.1022 78.6667 20.6469C79.3782 22.1741 79.734 23.901 79.734 25.8274V44.4671H73.4861Z" fill="white"/>
<path d="M112.1 45.2481C109.253 45.2481 106.754 44.632 104.602 43.3997C102.45 42.1675 100.767 40.458 99.5517 38.2712C98.3541 36.0844 97.7554 33.5679 97.7554 30.7216C97.7554 27.6497 98.3455 24.9857 99.5256 22.7295C100.706 20.4559 102.346 18.6943 104.446 17.4448C106.546 16.1951 108.976 15.5703 111.735 15.5703C114.651 15.5703 117.124 16.2558 119.155 17.627C121.202 18.9807 122.721 20.8985 123.71 23.3803C124.7 25.8621 125.073 28.7865 124.83 32.1534H118.608V29.8625C118.59 26.808 118.052 24.5778 116.994 23.172C115.935 21.7663 114.269 21.0634 111.995 21.0634C109.427 21.0634 107.518 21.8617 106.268 23.4584C105.019 25.0377 104.394 27.3547 104.394 30.4092C104.394 33.2555 105.019 35.4596 106.268 37.0216C107.518 38.5836 109.34 39.3646 111.735 39.3646C113.28 39.3646 114.607 39.0262 115.718 38.3493C116.846 37.6551 117.714 36.6572 118.321 35.3555L124.517 37.2299C123.441 39.7638 121.775 41.7336 119.519 43.1394C117.28 44.5452 114.807 45.2481 112.1 45.2481ZM102.415 32.1534V27.4154H121.758V32.1534H102.415Z" fill="white"/>
<path d="M49.5247 12.2721L43.3887 6.13605L49.5247 0L55.6608 6.13605L49.5247 12.2721Z" fill="#8946F6"/>
<path d="M210 3.4707H131.901V57.2724H210V3.4707Z" fill="white"/>
<mask id="mask0_0_23177" style="mask-type:alpha" maskUnits="userSpaceOnUse" x="131" y="3" width="79" height="55">
<path d="M210 3.4707H131.901V57.2724H210V3.4707Z" fill="#B072FF"/>
</mask>
<g mask="url(#mask0_0_23177)">
<g filter="url(#filter0_f_0_23177)">
<path fill-rule="evenodd" clip-rule="evenodd" d="M159.513 11.4122C159.115 0.986397 159.94 -9.4875 164.965 -18.6312C170.486 -28.6768 177.686 -39.8601 188.926 -42.1104C200.039 -44.3352 209.263 -34.1441 219.635 -29.5762C228.642 -25.6089 238.174 -23.5806 245.617 -17.1422C254.843 -9.1649 264.585 -0.535538 267.03 11.4122C269.724 24.5648 266.704 38.7118 259.352 49.9451C251.792 61.4956 240.201 72.0968 226.459 73.4014C213.293 74.6512 203.216 62.8832 191.71 56.3666C182.918 51.3877 173.076 48.0509 167.193 39.8368C161.335 31.6574 159.896 21.4658 159.513 11.4122Z" fill="#FFAE73"/>
</g>
<g filter="url(#filter1_f_0_23177)">
<path fill-rule="evenodd" clip-rule="evenodd" d="M147.097 78.5405C143.035 65.9832 133.02 53.1076 138.178 40.9594C143.318 28.853 158.378 23.6224 171.347 21.4285C183.281 19.4096 194.97 24.176 205.833 29.514C215.37 34.2007 221.933 42.2617 229.308 49.9111C238.138 59.0683 254.891 65.9456 253.105 78.5405C251.24 91.6992 230.726 91.8424 221.949 101.822C214.542 110.244 216.446 125.045 206.954 131.018C196.872 137.364 182.394 139.249 172.157 133.159C162.041 127.142 162.773 112.516 157.864 101.818C154.21 93.8532 149.794 86.8787 147.097 78.5405Z" fill="#30B4FF"/>
</g>
<g filter="url(#filter2_f_0_23177)">
<path fill-rule="evenodd" clip-rule="evenodd" d="M76.9491 20.1876C79.2806 12.0143 81.71 4.505 84.7616 -3.42751C89.1841 -14.923 88.7367 -29.5314 98.8054 -36.6254C109.482 -44.1479 124.17 -43.2029 136.866 -40.1394C150.285 -36.9014 165.164 -31.4504 171.363 -19.117C177.429 -7.04984 167.268 6.68204 167.188 20.1876C167.11 33.5641 178.467 48.1251 170.905 59.1589C163.369 70.1532 146.411 67.0905 133.321 69.6021C122.155 71.7447 111.331 75.0123 100.194 72.7268C88.0042 70.2254 72.8021 67.5296 67.7674 56.1497C62.6362 44.5518 73.4702 32.3834 76.9491 20.1876Z" fill="#8845F5"/>
</g>
<g filter="url(#filter3_f_0_23177)">
<path fill-rule="evenodd" clip-rule="evenodd" d="M53.8186 99.5197C52.3492 87.1578 61.3134 75.5169 70.5247 67.1427C78.7123 59.6994 91.0305 61.0713 101.117 56.5206C113.159 51.0873 121.908 36.8791 135.07 38.0222C148.557 39.1937 159.207 50.7648 166.46 62.1958C173.434 73.1871 173.377 86.5221 174.09 99.5197C174.848 113.359 179.6 129.297 170.724 139.942C161.867 150.564 145.284 148.217 131.632 150.439C120.319 152.281 108.611 156.365 98.1134 151.762C87.9926 147.324 84.7575 135.178 77.6108 126.749C69.6205 117.325 55.2772 111.789 53.8186 99.5197Z" fill="#6F86FF"/>
</g>
<path d="M142.314 43.957V15.6201H147.056V39.5097H159.572V43.957H142.314Z" fill="white"/>
<path d="M166.88 44.5475C165.345 44.5475 164.047 44.2588 162.984 43.6818C161.921 43.0914 161.115 42.3107 160.564 41.34C160.026 40.3692 159.757 39.2999 159.757 38.1324C159.757 37.1091 159.927 36.1909 160.268 35.3774C160.61 34.5509 161.134 33.8425 161.843 33.2522C162.551 32.6486 163.469 32.1568 164.598 31.7763C165.45 31.5007 166.448 31.2515 167.589 31.0285C168.743 30.8055 169.99 30.6021 171.328 30.4185C172.679 30.2216 174.09 30.0118 175.558 29.7888L173.866 30.7531C173.88 29.2838 173.551 28.2013 172.882 27.5061C172.213 26.8108 171.085 26.4632 169.498 26.4632C168.54 26.4632 167.615 26.6862 166.723 27.1322C165.831 27.5782 165.208 28.3457 164.854 29.4346L160.524 28.0767C161.049 26.2794 162.046 24.8364 163.515 23.7476C164.998 22.6587 166.992 22.1143 169.498 22.1143C171.387 22.1143 173.046 22.4225 174.477 23.0391C175.919 23.6556 176.988 24.6658 177.684 26.0695C178.064 26.8174 178.293 27.5848 178.373 28.3719C178.451 29.146 178.491 29.992 178.491 30.9105V43.9572H174.338V39.3525L175.027 40.1002C174.069 41.6351 172.948 42.7633 171.662 43.485C170.39 44.1934 168.796 44.5475 166.88 44.5475ZM167.825 40.7694C168.901 40.7694 169.819 40.5792 170.58 40.1986C171.341 39.8181 171.944 39.3525 172.39 38.8014C172.85 38.2504 173.158 37.7322 173.315 37.2469C173.564 36.6435 173.703 35.9546 173.729 35.1806C173.769 34.3935 173.788 33.7573 173.788 33.2719L175.244 33.7047C173.814 33.9277 172.587 34.1245 171.564 34.2951C170.541 34.4657 169.662 34.6296 168.927 34.7872C168.192 34.9314 167.543 35.0954 166.979 35.279C166.428 35.4758 165.962 35.7054 165.582 35.9678C165.201 36.2301 164.906 36.5319 164.696 36.8729C164.499 37.2141 164.401 37.6142 164.401 38.0734C164.401 38.598 164.532 39.0639 164.795 39.4705C165.057 39.8641 165.437 40.1789 165.936 40.4152C166.448 40.6512 167.077 40.7694 167.825 40.7694Z" fill="white"/>
<path d="M191.858 44.5473C189.786 44.5473 188.049 44.0554 186.645 43.0715C185.241 42.0875 184.184 40.7494 183.476 39.0571C182.768 37.3515 182.413 35.4428 182.413 33.3307C182.413 31.1923 182.768 29.277 183.476 27.5846C184.184 25.8923 185.222 24.5606 186.586 23.5898C187.962 22.6059 189.661 22.114 191.681 22.114C193.689 22.114 195.428 22.6059 196.897 23.5898C198.379 24.5606 199.528 25.8923 200.34 27.5846C201.154 29.2638 201.56 31.1791 201.56 33.3307C201.56 35.456 201.161 37.3647 200.361 39.0571C199.561 40.7494 198.432 42.0875 196.975 43.0715C195.519 44.0554 193.814 44.5473 191.858 44.5473ZM181.606 43.957V15.6201H186.388V29.0408H185.798V43.957H181.606ZM191.131 40.2968C192.365 40.2968 193.38 39.9885 194.18 39.3719C194.982 38.7552 195.572 37.9224 195.952 36.8727C196.346 35.8102 196.542 34.6294 196.542 33.3307C196.542 32.045 196.346 30.8775 195.952 29.828C195.558 28.7653 194.949 27.9257 194.121 27.309C193.295 26.6794 192.245 26.3646 190.973 26.3646C189.767 26.3646 188.783 26.6598 188.021 27.25C187.261 27.8273 186.697 28.6407 186.329 29.6902C185.975 30.7265 185.798 31.9401 185.798 33.3307C185.798 34.7081 185.975 35.9216 186.329 36.9711C186.697 38.0206 187.268 38.8406 188.042 39.4309C188.828 40.0081 189.859 40.2968 191.131 40.2968Z" fill="white"/>
<path d="M210 3.4707H131.901V57.2724H210V3.4707Z" fill="white"/>
</g>
<mask id="mask1_0_23177" style="mask-type:alpha" maskUnits="userSpaceOnUse" x="131" y="3" width="79" height="55">
<path d="M210 3.4707H131.901V57.2724H210V3.4707Z" fill="#B072FF"/>
</mask>
<g mask="url(#mask1_0_23177)">
<g filter="url(#filter4_f_0_23177)">
<path fill-rule="evenodd" clip-rule="evenodd" d="M159.513 11.4122C159.115 0.986397 159.94 -9.4875 164.965 -18.6312C170.486 -28.6768 177.686 -39.8601 188.926 -42.1104C200.039 -44.3352 209.263 -34.1441 219.635 -29.5762C228.642 -25.6089 238.174 -23.5806 245.617 -17.1422C254.843 -9.1649 264.585 -0.535538 267.03 11.4122C269.724 24.5648 266.704 38.7118 259.352 49.9451C251.792 61.4956 240.201 72.0968 226.459 73.4014C213.293 74.6512 203.216 62.8832 191.71 56.3666C182.918 51.3877 173.076 48.0509 167.193 39.8368C161.335 31.6574 159.896 21.4658 159.513 11.4122Z" fill="#FFAE73"/>
</g>
<g filter="url(#filter5_f_0_23177)">
<path fill-rule="evenodd" clip-rule="evenodd" d="M147.097 78.5405C143.035 65.9832 133.02 53.1076 138.178 40.9594C143.318 28.853 158.378 23.6224 171.347 21.4285C183.281 19.4096 194.97 24.176 205.833 29.514C215.37 34.2007 221.933 42.2617 229.308 49.9111C238.138 59.0683 254.891 65.9456 253.105 78.5405C251.24 91.6992 230.726 91.8424 221.949 101.822C214.542 110.244 216.446 125.045 206.954 131.018C196.872 137.364 182.394 139.249 172.157 133.159C162.041 127.142 162.773 112.516 157.864 101.818C154.21 93.8532 149.794 86.8787 147.097 78.5405Z" fill="#30B4FF"/>
</g>
<g filter="url(#filter6_f_0_23177)">
<path fill-rule="evenodd" clip-rule="evenodd" d="M76.9491 20.1876C79.2806 12.0143 81.71 4.505 84.7616 -3.42751C89.1841 -14.923 88.7367 -29.5314 98.8054 -36.6254C109.482 -44.1479 124.17 -43.2029 136.866 -40.1394C150.285 -36.9014 165.164 -31.4504 171.363 -19.117C177.429 -7.04984 167.268 6.68204 167.188 20.1876C167.11 33.5641 178.467 48.1251 170.905 59.1589C163.369 70.1532 146.411 67.0905 133.321 69.6021C122.155 71.7447 111.331 75.0123 100.194 72.7268C88.0042 70.2254 72.8021 67.5296 67.7674 56.1497C62.6362 44.5518 73.4702 32.3834 76.9491 20.1876Z" fill="#8845F5"/>
</g>
<g filter="url(#filter7_f_0_23177)">
<path fill-rule="evenodd" clip-rule="evenodd" d="M53.8186 99.5197C52.3492 87.1578 61.3134 75.5169 70.5247 67.1427C78.7123 59.6994 91.0305 61.0713 101.117 56.5206C113.159 51.0873 121.908 36.8791 135.07 38.0222C148.557 39.1937 159.207 50.7648 166.46 62.1958C173.434 73.1871 173.377 86.5221 174.09 99.5197C174.848 113.359 179.6 129.297 170.724 139.942C161.867 150.564 145.284 148.217 131.632 150.439C120.319 152.281 108.611 156.365 98.1134 151.762C87.9926 147.324 84.7575 135.178 77.6108 126.749C69.6205 117.325 55.2772 111.789 53.8186 99.5197Z" fill="#6F86FF"/>
</g>
<path d="M142.314 43.957V15.6201H147.056V39.5097H159.572V43.957H142.314Z" fill="white"/>
<path d="M166.88 44.5475C165.345 44.5475 164.047 44.2588 162.984 43.6818C161.921 43.0914 161.115 42.3107 160.564 41.34C160.026 40.3692 159.757 39.2999 159.757 38.1324C159.757 37.1091 159.927 36.1909 160.268 35.3774C160.61 34.5509 161.134 33.8425 161.843 33.2522C162.551 32.6486 163.469 32.1568 164.598 31.7763C165.45 31.5007 166.448 31.2515 167.589 31.0285C168.743 30.8055 169.99 30.6021 171.328 30.4185C172.679 30.2216 174.09 30.0118 175.558 29.7888L173.866 30.7531C173.88 29.2838 173.551 28.2013 172.882 27.5061C172.213 26.8108 171.085 26.4632 169.498 26.4632C168.54 26.4632 167.615 26.6862 166.723 27.1322C165.831 27.5782 165.208 28.3457 164.854 29.4346L160.524 28.0767C161.049 26.2794 162.046 24.8364 163.515 23.7476C164.998 22.6587 166.992 22.1143 169.498 22.1143C171.387 22.1143 173.046 22.4225 174.477 23.0391C175.919 23.6556 176.988 24.6658 177.684 26.0695C178.064 26.8174 178.293 27.5848 178.373 28.3719C178.451 29.146 178.491 29.992 178.491 30.9105V43.9572H174.338V39.3525L175.027 40.1002C174.069 41.6351 172.948 42.7633 171.662 43.485C170.39 44.1934 168.796 44.5475 166.88 44.5475ZM167.825 40.7694C168.901 40.7694 169.819 40.5792 170.58 40.1986C171.341 39.8181 171.944 39.3525 172.39 38.8014C172.85 38.2504 173.158 37.7322 173.315 37.2469C173.564 36.6435 173.703 35.9546 173.729 35.1806C173.769 34.3935 173.788 33.7573 173.788 33.2719L175.244 33.7047C173.814 33.9277 172.587 34.1245 171.564 34.2951C170.541 34.4657 169.662 34.6296 168.927 34.7872C168.192 34.9314 167.543 35.0954 166.979 35.279C166.428 35.4758 165.962 35.7054 165.582 35.9678C165.201 36.2301 164.906 36.5319 164.696 36.8729C164.499 37.2141 164.401 37.6142 164.401 38.0734C164.401 38.598 164.532 39.0639 164.795 39.4705C165.057 39.8641 165.437 40.1789 165.936 40.4152C166.448 40.6512 167.077 40.7694 167.825 40.7694Z" fill="white"/>
<path d="M191.858 44.5473C189.786 44.5473 188.049 44.0554 186.645 43.0715C185.241 42.0875 184.184 40.7494 183.476 39.0571C182.768 37.3515 182.413 35.4428 182.413 33.3307C182.413 31.1923 182.768 29.277 183.476 27.5846C184.184 25.8923 185.222 24.5606 186.586 23.5898C187.962 22.6059 189.661 22.114 191.681 22.114C193.689 22.114 195.428 22.6059 196.897 23.5898C198.379 24.5606 199.528 25.8923 200.34 27.5846C201.154 29.2638 201.56 31.1791 201.56 33.3307C201.56 35.456 201.161 37.3647 200.361 39.0571C199.561 40.7494 198.432 42.0875 196.975 43.0715C195.519 44.0554 193.814 44.5473 191.858 44.5473ZM181.606 43.957V15.6201H186.388V29.0408H185.798V43.957H181.606ZM191.131 40.2968C192.365 40.2968 193.38 39.9885 194.18 39.3719C194.982 38.7552 195.572 37.9224 195.952 36.8727C196.346 35.8102 196.542 34.6294 196.542 33.3307C196.542 32.045 196.346 30.8775 195.952 29.828C195.558 28.7653 194.949 27.9257 194.121 27.309C193.295 26.6794 192.245 26.3646 190.973 26.3646C189.767 26.3646 188.783 26.6598 188.021 27.25C187.261 27.8273 186.697 28.6407 186.329 29.6902C185.975 30.7265 185.798 31.9401 185.798 33.3307C185.798 34.7081 185.975 35.9216 186.329 36.9711C186.697 38.0206 187.268 38.8406 188.042 39.4309C188.828 40.0081 189.859 40.2968 191.131 40.2968Z" fill="white"/>
</g>
</g>
<defs>
<filter id="filter0_f_0_23177" x="147.426" y="-54.4238" width="132.576" height="139.917" filterUnits="userSpaceOnUse" color-interpolation-filters="sRGB">
<feFlood flood-opacity="0" result="BackgroundImageFix"/>
<feBlend mode="normal" in="SourceGraphic" in2="BackgroundImageFix" result="shape"/>
<feGaussianBlur stdDeviation="6" result="effect1_foregroundBlur_0_23177"/>
</filter>
<filter id="filter1_f_0_23177" x="124.734" y="8.95508" width="140.503" height="139.917" filterUnits="userSpaceOnUse" color-interpolation-filters="sRGB">
<feFlood flood-opacity="0" result="BackgroundImageFix"/>
<feBlend mode="normal" in="SourceGraphic" in2="BackgroundImageFix" result="shape"/>
<feGaussianBlur stdDeviation="6" result="effect1_foregroundBlur_0_23177"/>
</filter>
<filter id="filter2_f_0_23177" x="54.4111" y="-54.4121" width="131.092" height="139.917" filterUnits="userSpaceOnUse" color-interpolation-filters="sRGB">
<feFlood flood-opacity="0" result="BackgroundImageFix"/>
<feBlend mode="normal" in="SourceGraphic" in2="BackgroundImageFix" result="shape"/>
<feGaussianBlur stdDeviation="6" result="effect1_foregroundBlur_0_23177"/>
</filter>
<filter id="filter3_f_0_23177" x="41.6597" y="25.957" width="146.378" height="139.917" filterUnits="userSpaceOnUse" color-interpolation-filters="sRGB">
<feFlood flood-opacity="0" result="BackgroundImageFix"/>
<feBlend mode="normal" in="SourceGraphic" in2="BackgroundImageFix" result="shape"/>
<feGaussianBlur stdDeviation="6" result="effect1_foregroundBlur_0_23177"/>
</filter>
<filter id="filter4_f_0_23177" x="147.426" y="-54.4238" width="132.576" height="139.917" filterUnits="userSpaceOnUse" color-interpolation-filters="sRGB">
<feFlood flood-opacity="0" result="BackgroundImageFix"/>
<feBlend mode="normal" in="SourceGraphic" in2="BackgroundImageFix" result="shape"/>
<feGaussianBlur stdDeviation="6" result="effect1_foregroundBlur_0_23177"/>
</filter>
<filter id="filter5_f_0_23177" x="124.734" y="8.95508" width="140.503" height="139.917" filterUnits="userSpaceOnUse" color-interpolation-filters="sRGB">
<feFlood flood-opacity="0" result="BackgroundImageFix"/>
<feBlend mode="normal" in="SourceGraphic" in2="BackgroundImageFix" result="shape"/>
<feGaussianBlur stdDeviation="6" result="effect1_foregroundBlur_0_23177"/>
</filter>
<filter id="filter6_f_0_23177" x="54.4111" y="-54.4121" width="131.092" height="139.917" filterUnits="userSpaceOnUse" color-interpolation-filters="sRGB">
<feFlood flood-opacity="0" result="BackgroundImageFix"/>
<feBlend mode="normal" in="SourceGraphic" in2="BackgroundImageFix" result="shape"/>
<feGaussianBlur stdDeviation="6" result="effect1_foregroundBlur_0_23177"/>
</filter>
<filter id="filter7_f_0_23177" x="41.6597" y="25.957" width="146.378" height="139.917" filterUnits="userSpaceOnUse" color-interpolation-filters="sRGB">
<feFlood flood-opacity="0" result="BackgroundImageFix"/>
<feBlend mode="normal" in="SourceGraphic" in2="BackgroundImageFix" result="shape"/>
<feGaussianBlur stdDeviation="6" result="effect1_foregroundBlur_0_23177"/>
</filter>
<clipPath id="clip0_0_23177">
<rect width="210" height="57.2727" fill="white"/>
</clipPath>
</defs>
</svg>
